<svg width="20" height="20" viewBox="0 0 20 20" fill="none" xmlns="http://www.w3.org/2000/svg">
<rect x="0.3" y="0.3" width="19.4" height="19.4" rx="9.7" stroke="black" stroke-opacity="0.6" stroke-width="0.6"/>
<path d="M4.90045 10.6938C4.33736 10.1381 4.01458 9.38378 4.0014 8.59278C3.98822 7.80178 4.28569 7.03714 4.82995 6.46301L4.86445 6.42701L4.8997 6.39101C5.46624 5.83184 6.22662 5.51275 7.02254 5.50017C7.81845 5.4876 8.58853 5.78251 9.17245 6.32351L9.20845 6.35801L9.2422 6.39101L9.4132 6.56051L8.6422 7.32926L7.57195 8.40176C7.51022 8.46355 7.46986 8.54346 7.45677 8.62981C7.44369 8.71617 7.45855 8.80445 7.4992 8.88176L7.5097 8.90201L7.5352 8.94326C8.36095 10.2933 9.49495 10.4755 10.6627 9.43601L10.6987 9.40376L11.4375 8.74451L14.1104 11.6755L12.4252 13.345L12.405 13.3713C12.3787 13.4028 12.3524 13.4343 12.3239 13.4658L12.2819 13.513L12.2369 13.5595L12.1867 13.612L10.8982 14.887C10.6754 15.109 10.3807 15.235 10.0665 15.2485L10.029 15.25H9.9652C9.65468 15.2455 9.35691 15.1257 9.1297 14.914L9.1027 14.8878L7.8142 13.6113C7.74093 13.5388 7.67135 13.4627 7.6057 13.3833L7.5757 13.3458L4.8997 10.6938H4.90045ZM15.1005 6.39101C15.67 6.95277 15.9935 7.7174 16.0003 8.51732C16.007 9.31724 15.6964 10.0872 15.1364 10.6585L15.1012 10.6938L14.7 11.0913L11.7765 7.88576L11.7614 7.86926C11.6884 7.79757 11.5916 7.75509 11.4894 7.74984C11.3871 7.74459 11.2865 7.77693 11.2064 7.84076L11.1892 7.85576L10.1385 8.79326L10.1115 8.81801C9.4237 9.43301 8.9287 9.43751 8.43895 8.79851L8.41795 8.77001L8.3992 8.74526L9.3682 7.77401L10.1145 7.03151L10.62 6.52901L10.8397 6.31301C11.4243 5.77662 12.1927 5.48549 12.9859 5.49987C13.7791 5.51425 14.5365 5.83303 15.1012 6.39026L15.1005 6.39101Z" fill="black" fill-opacity="0.6"/>
</svg>
