<svg width="24" height="24" viewBox="0 0 24 24" fill="none" xmlns="http://www.w3.org/2000/svg">
<g clip-path="url(#clip0_965_7900)">
<path fill-rule="evenodd" clip-rule="evenodd" d="M12 0C13.1046 0 14 0.895431 14 2V6C14 8.20914 15.7909 10 18 10H22C23.1046 10 24 10.8954 24 12V16.8C24 20.7765 20.7765 24 16.8 24H7.2C3.22355 24 1.54632e-07 20.7765 0 16.8V7.2C1.54632e-07 3.22355 3.22355 1.54623e-07 7.2 0H12ZM9 9.6C8.44776 9.60005 8 10.0477 8 10.6V16.5361L7.30684 15.843C6.91631 15.4525 6.28328 15.4525 5.89277 15.843C5.50237 16.2335 5.50233 16.8665 5.89277 17.257L8.29277 19.657C8.68326 20.0475 9.31631 20.0474 9.70684 19.657L12.1068 17.257C12.4974 16.8665 12.4973 16.2335 12.1068 15.843C11.7163 15.4525 11.0833 15.4525 10.6928 15.843L10 16.5357V10.6C10 10.0477 9.55225 9.60004 9 9.6Z" fill="#9162FF" fill-opacity="0.6"/>
<path d="M15.8 1.08086C15.8 0.190001 16.8771 -0.256087 17.507 0.373828L23.693 6.55957C24.3229 7.18954 23.8766 8.2666 22.9857 8.2666H18.2C16.8745 8.2666 15.8 7.19208 15.8 5.8666V1.08086Z" fill="#9162FF" fill-opacity="0.6"/>
</g>
<defs>
<clipPath id="clip0_965_7900">
<rect width="24" height="24" fill="white"/>
</clipPath>
</defs>
</svg>
